# xmcd
#
# Track frame offsets: 
#        150
#        18765
#        40612
#        57190
#        79767
#        94857
#        112147
#        129937
#        145857
#
# Disc length: 2189 seconds
#
# Revision: 1
# Processed by: cddbd v1.5.2PL0 Copyright (c) Steve Scherf et al.
# Submitted via: ExactAudioCopy v0.99pb4
#
DISCID=6b088b09
DTITLE=Trevor Rabin - Trevor Rabin
DYEAR=1978
DGENRE=Rock
TTITLE0=Getting To Know You Better
TTITLE1=Finding Me A Way Back Home
TTITLE2=All I Want Is Your Love
TTITLE3=Live A Bit
TTITLE4=Fantasy
TTITLE5=Stay With Me
TTITLE6=Red Desert
TTITLE7=Painted Picture
TTITLE8=Love Life
EXTD=
EXTT0=
EXTT1=
EXTT2=
EXTT3=
EXTT4=
EXTT5=
EXTT6=
EXTT7=
EXTT8=
PLAYORDER=
